<?xml version="1.0" encoding="utf-8"?>
<!-- Svg Vector Icons : http://www.onlinewebfonts.com/icon -->
<!DOCTYPE svg PUBLIC "-//W3C//DTD SVG 1.1//EN" "http://www.w3.org/Graphics/SVG/1.1/DTD/svg11.dtd">
<svg version="1.1" xmlns="http://www.w3.org/2000/svg" xmlns:xlink="http://www.w3.org/1999/xlink" x="0px" y="0px" viewBox="0 0 1000 1000" enable-background="new 0 0 1000 1000" xml:space="preserve">
<metadata> Svg Vector Icons : http://www.onlinewebfonts.com/icon </metadata>
<g><path d="M190.5,608.1c-17.5,3.3-35.1,7.8-52.9,13.5c-17.8,5.7-34.4,13.2-49.9,22.5c-29.6,17.3-49.9,37.5-61,60.5c-11.1,23-16.6,43.5-16.6,61.6c0,18.7,4.4,36.5,13.1,53.5c8.7,17,22.2,32.2,40.3,45.5c18.1,13.3,40.8,24,68.1,32c27.2,8,59,12,95.3,12c43,0,81.2-5.5,114.4-16.5c33.3-11,61-25.4,83.2-43c22.2-17.7,39-37.9,50.4-60.5c11.4-22.7,17.1-45.7,17.1-69.1c0-17.3-2.4-32.7-7.1-46s-10.9-25.3-18.7-36c-7.7-10.7-16.8-20.7-27.2-30c-10.4-9.3-21-18.7-31.8-28l-36.3-28c-5.4-4.7-11.1-10.2-17.1-16.5c-6-6.3-9.1-15.2-9.1-26.5c0-11.3,3-20.7,9.1-28c6-7.3,12.4-14.3,19.2-21c10.8-8,21.2-16.5,31.3-25.5c10.1-9,19.2-19,27.2-30c8.1-11,14.5-23.5,19.2-37.5c4.7-14,7.1-30.4,7.1-49c0-18.7-2.7-35.4-8.1-50c-5.4-14.7-11.8-27.5-19.2-38.5c-7.4-11-15.1-20.3-23.2-28c-8.1-7.7-15.1-13.8-21.2-18.5h62.5l64.5-36l-207.7,0c-27.6,0-57.3,3.3-89.2,10c-31.9,6.7-62.3,21.7-91.2,45c-21.5,18.7-37.6,39.9-48.4,63.5c-10.8,23.7-16.1,47.2-16.1,70.6c0,19.4,3.7,38.5,11.1,57.5c7.4,19,18.1,35.9,32.3,50.5c14.1,14.7,31.6,26.5,52.4,35.5c20.8,9,44.7,13.5,71.6,13.5c5.4,0,10.8-0.2,16.1-0.5c5.4-0.3,10.8-0.8,16.1-1.5c-2.7,6-5,11.8-7.1,17.5c-2,5.7-3,12.8-3,21.5c0,15.3,3.2,28.2,9.6,38.5c6.4,10.3,13.3,20.2,20.7,29.5c-11.4,0.7-24.9,1.7-40.3,3C224.4,602.4,207.9,604.7,190.5,608.1z M275.2,465c-21.5,0-40.2-6.2-56-18.5c-15.8-12.3-28.9-27.5-39.3-45.5c-10.4-18-18.1-37.4-23.2-58c-5-20.7-7.6-39.4-7.6-56c0-13.3,1.5-26.4,4.5-39c3-12.7,8.9-24.3,17.6-35c8.1-10,18.5-18,31.3-24c12.8-6,25.9-9,39.3-9c20.8,0,39.2,6.2,54.9,18.5c15.8,12.3,29.1,27.9,39.8,46.5c10.8,18.7,18.8,38.7,24.2,60c5.4,21.3,8.1,41,8.1,59c0,9.3-1.3,21-4,35c-2.7,14-9.7,26.7-21.2,38c-8.1,8-18.3,14.7-30.7,20C300.5,462.3,287.9,465,275.2,465z M277.2,626.6c7.4-0.3,12.1-0.5,14.1-0.5h12.6c3,0,6.6,0.3,10.6,1c18.8,13.3,35.3,25.4,49.4,36c14.1,10.7,25.5,21,34.3,31c8.7,10,15.3,20.2,19.7,30.5c4.4,10.3,6.6,21.8,6.6,34.5c0,31.4-12.6,57.2-37.8,77.6c-25.2,20.4-62,30.5-110.4,30.5c-54.4,0-97.6-11.3-129.6-34c-31.9-22.7-47.9-52-47.9-88.1c0-18,3.5-33,10.6-45s15.3-22,24.7-30c9.4-8,19-14.2,28.7-18.5s17.3-7.5,22.7-9.5c10.8-3.3,21.8-6.2,33.3-8.5c11.4-2.3,22.2-4,32.3-5C261.1,627.6,269.8,626.9,277.2,626.6z"/><path d="M799.4,90.7h-60.5v187.1H547.4v60h191.6V528h60.5V337.9H990v-60H799.4V90.7z"/></g>
</svg>