<svg xmlns="http://www.w3.org/2000/svg" viewBox="0 0 2338 249.26"><defs><style>.cls-1{fill:#fff;}.cls-2{fill:#e31c3d;}.cls-3{fill:#02bfe7;}.cls-4{fill:none;}.cls-5{fill:#112e51;stroke:#112e51;stroke-miterlimit:10;opacity:0.5;isolation:isolate;}</style></defs><title>logo-svgAsset 1</title><g id="Layer_2" data-name="Layer 2"><g id="Layer_1-2" data-name="Layer 1"><g id="Layer_2-2" data-name="Layer 2"><g id="Layer_2-2-2" data-name="Layer 2-2"><polygon class="cls-1" points="241.82 190.31 174.29 122.79 241.82 55.26 241.82 4.61 239.75 4.61 239.45 4.32 186.14 4.32 120.98 69.47 55.82 4.32 2.51 4.32 0 4.32 0 55.12 67.67 122.79 0 190.46 0 241.25 2.51 241.26 55.82 241.26 120.98 176.1 186.14 241.26 239.75 241.26 241.82 241.25 241.82 190.31"/><polygon class="cls-2" points="241.82 201.74 44.4 4.32 2.51 4.32 0 4.31 0 43.69 197.57 241.26 239.45 241.26 241.82 241.24 241.82 201.74"/><polygon class="cls-3" points="241.82 4.32 239.45 4.32 197.57 4.32 0 201.88 0 241.29 2.51 241.26 44.4 241.26 241.82 43.84 241.82 4.32"/><polygon class="cls-4" points="44.4 241.26 239.45 241.26 239.45 46.2 44.4 241.26"/><polygon class="cls-4" points="2.51 4.32 2.51 199.37 197.57 4.32 2.51 4.32"/><rect class="cls-5" x="91.66" y="92.63" width="58.64" height="60.31" transform="translate(-51.39 121.51) rotate(-45)"/><polygon id="star" class="cls-1" points="121.28 102.11 127.04 113.79 139.94 115.66 130.61 124.76 132.81 137.6 121.28 131.53 109.75 137.6 111.95 124.76 102.62 115.66 115.51 113.79 121.28 102.11"/><path class="cls-3" d="M389.46,241.22,344,155.85H314.62v85.37h-53.4V4.36h85.37A165.1,165.1,0,0,1,382,8a80.79,80.79,0,0,1,28.88,12.17A60.8,60.8,0,0,1,430.5,42.88Q437.77,57,437.77,78.1q0,26.16-11.44,43a69.79,69.79,0,0,1-30.7,25.25l53.76,94.82ZM314.62,113.34h27.61q21.06,0,32.15-8.9T385.46,78.1q0-17.44-11.08-24.34t-32.15-6.9H314.62Z"/><path class="cls-3" d="M457.75,4.36H606v45H511.15V97H591.8v44.68H511.15v54.49H609.6v45H457.75Z"/><path class="cls-3" d="M629.58,4.36h81a202.37,202.37,0,0,1,34.33,2.72,81.87,81.87,0,0,1,27.61,9.63,51.36,51.36,0,0,1,18.53,18.16q6.72,11.26,6.72,28.34a56.21,56.21,0,0,1-2.36,16,52.77,52.77,0,0,1-7.08,14.89A49.81,49.81,0,0,1,776,106.44a51.93,51.93,0,0,1-17.8,8v1.45q25.4,4.72,38.3,18.11t12.9,37.42q0,18.17-7.08,31.24a61,61,0,0,1-19.62,21.61A90.28,90.28,0,0,1,753.46,237a147.88,147.88,0,0,1-36,4.18H629.58ZM708,99.9q19.62,0,28.52-7.81t8.9-21.25q0-13.44-9.08-19.25t-28-5.81H683V99.9Zm5.08,99.9q44,0,44-32.33,0-15.62-10.9-22.71t-33.06-7.08H683V199.8Z"/><path class="cls-3" d="M918.38,245.57q-24,0-43.77-8.54a95,95,0,0,1-34-24.52q-14.17-16-22-38.87t-7.81-51.95q0-29.06,7.81-51.77t22-38.14a94.35,94.35,0,0,1,34-23.61Q894.4,0,918.38,0t43.78,8.17a93.39,93.39,0,0,1,34,23.79q14.17,15.62,22,38.33t7.81,51.4q0,29.07-7.81,51.95t-22,38.87a95.1,95.1,0,0,1-34,24.52Q942.35,245.57,918.38,245.57Zm0-46.14q24.33,0,38.51-20.89t14.17-56.85q0-35.6-14.17-55.58t-38.51-20q-24.34,0-38.51,20T865.71,121.7q0,36,14.17,56.85t38.5,20.89Z"/><path class="cls-3" d="M1139.61,245.57q-24,0-43.77-8.54a95.05,95.05,0,0,1-34-24.52q-14.17-16-22-38.87T1032,121.69q0-29.06,7.81-51.77t22-38.14a94.35,94.35,0,0,1,34-23.61Q1115.63,0,1139.61,0t43.78,8.17a93.39,93.39,0,0,1,34,23.79q14.17,15.62,22,38.33t7.81,51.4q0,29.07-7.81,51.95t-22,38.87a95.1,95.1,0,0,1-34,24.52Q1163.58,245.57,1139.61,245.57Zm0-46.14q24.33,0,38.51-20.89t14.17-56.85q0-35.6-14.17-55.58t-38.51-20q-24.34,0-38.51,20t-14.17,55.58q0,36,14.17,56.85t38.51,20.9Z"/><path class="cls-3" d="M1303.45,49.41h-65v-45h183.82v45h-65V241.22h-53.76Z"/><path class="cls-2" d="M1442.17,4.38h54.58V139q0,35.41,10.7,49.42t31,14q20.28,0,31.35-14t11-49.42V4.38h52.37V133.46q0,60.49-24.16,88.14t-70.62,27.66q-46.84,0-71.55-27.66t-24.71-88.14Z"/><path class="cls-2" d="M1670.45,4.38h55.69l62.7,119.49,23.6,53.11h1.47q-1.85-19.17-4.24-42.78a444.6,444.6,0,0,1-2.4-45V4.38h51.63V244.84h-55.69L1740.52,125l-23.6-52.37h-1.47q1.84,19.91,4.24,42.78a425.39,425.39,0,0,1,2.4,44.26v85.19h-51.63Z"/><path class="cls-2" d="M1897.26,4.38h54.21V244.84h-54.21Z"/><path class="cls-2" d="M2036.66,50.11h-66V4.38h186.61V50.11h-66V244.84h-54.58Z"/><path class="cls-2" d="M2211.11,159.28,2138.45,4.38h58.27l21.39,55.32q5.16,13.65,9.77,26.37t9.77,26.74h1.47q5.16-14,10.14-26.74T2259.4,59.7l21.76-55.32H2338l-72.65,154.89v85.56h-54.21Z"/></g></g></g></g></svg>